# xmcd
# Copyright (C) 1995-1998 Ti Kan
#
# Track frame offsets:
#       150
#       16558
#       37347
#       52520
#       74445
#       95313
#       123045
#       144525
#       162101
#       179462
#       191787
#
# Disc length: 2860 seconds
#
# Revision: 0
# Processed by: cddbd v1.5.2PL0 Copyright (c) Steve Scherf et al.
# Submitted via: CD-Import v1.0
#
DISCID=8a0b2a0b
DTITLE=Thirteen Senses - The Invitation
DYEAR=2004
DGENRE=
TTITLE0=Thru The Glass
TTITLE1=Gone
TTITLE2=Do No Wrong
TTITLE3=The Salt Wound Routine
TTITLE4=Saving
TTITLE5=Lead Us
TTITLE6=Last Forever
TTITLE7=History
TTITLE8=Undivided
TTITLE9=Automatic
TTITLE10=Into The Fire
EXTD=
EXTT0=
EXTT1=
EXTT2=
EXTT3=
EXTT4=
EXTT5=
EXTT6=
EXTT7=
EXTT8=
EXTT9=
EXTT10=
PLAYORDER=
